<svg xmlns="http://www.w3.org/2000/svg" width="168" height="168" id="welcome">
  <path fill="#0bceb2" d="M46.789 40.66a1.502 1.502 0 0 0-1.393 1.199L42.433 54.44l-2.887-12.522a1.428 1.428 0 0 0-2.835 0L33.824 54.44 30.862 41.86a1.502 1.502 0 0 0-1.393-1.198A1.621 1.621 0 0 0 28 42.398a1.826 1.826 0 0 0 .075.539l4.33 17.166a1.5 1.5 0 0 0 1.394 1.198 1.534 1.534 0 0 0 1.418-1.287l2.911-12.284 2.912 12.284a1.534 1.534 0 0 0 1.418 1.287 1.5 1.5 0 0 0 1.394-1.198l4.33-17.166a1.826 1.826 0 0 0 .075-.539 1.621 1.621 0 0 0-1.468-1.737Z"></path>
  <path fill="#2d4356" d="M59.907 57.946h-6.71v-5.512h4.785a1.55 1.55 0 0 0 0-3.056h-4.785v-5.363h6.43a1.58 1.58 0 0 0 0-3.115h-7.9a1.621 1.621 0 0 0-1.469 1.738v16.686a1.621 1.621 0 0 0 1.469 1.738h8.18a1.58 1.58 0 0 0 0-3.116Z"></path>
  <path fill="#0bceb2" d="M72.442 57.826H66.44V42.398a1.49 1.49 0 1 0-2.938 0v16.986a1.53 1.53 0 0 0 1.443 1.678h7.497a1.473 1.473 0 0 0 1.417-1.617 1.49 1.49 0 0 0-1.417-1.619Z"></path>
  <path fill="#2d4356" d="M88.394 55.729a1.44 1.44 0 0 0-1.088.66 4.602 4.602 0 0 1-4.103 1.977c-3.368 0-4.887-2.127-4.887-7.37 0-4.943 1.519-7.4 4.887-7.4a4.583 4.583 0 0 1 3.976 2.097 1.329 1.329 0 0 0 1.038.6 1.492 1.492 0 0 0 1.368-1.588 1.91 1.91 0 0 0-.28-.988 6.687 6.687 0 0 0-6.102-3.236c-5.04 0-7.926 3.414-7.926 10.514 0 7.34 2.887 10.486 7.926 10.486a7.443 7.443 0 0 0 6.305-3.236 1.649 1.649 0 0 0 .254-.898 1.503 1.503 0 0 0-1.368-1.618Z"></path>
  <path fill="#0bceb2" d="M99.51 40.481c-5.115 0-8.027 3.414-8.027 10.514 0 7.011 2.912 10.486 8.027 10.486 5.115 0 8.027-3.475 8.027-10.486 0-7.1-2.912-10.514-8.027-10.514Zm0 17.885c-3.342 0-4.988-2.427-4.988-7.37 0-4.973 1.646-7.4 4.988-7.4 3.342 0 4.989 2.427 4.989 7.4 0 4.943-1.647 7.37-4.989 7.37Z"></path>
  <path fill="#2d4356" d="M124.554 40.66a1.43 1.43 0 0 0-1.291.96l-5.368 11.383-5.37-11.384a1.43 1.43 0 0 0-1.291-.958 1.61 1.61 0 0 0-1.442 1.708v17.224a1.463 1.463 0 1 0 2.885 0V48.69l3.976 8.358a1.337 1.337 0 0 0 2.482 0l3.976-8.358v10.904a1.464 1.464 0 1 0 2.886 0V42.368a1.61 1.61 0 0 0-1.443-1.707Z"></path>
  <path fill="#0bceb2" d="M138.683 57.946h-6.71v-5.512h4.786a1.55 1.55 0 0 0 0-3.056h-4.786v-5.363h6.432a1.58 1.58 0 0 0 0-3.115h-7.901a1.621 1.621 0 0 0-1.469 1.738v16.686a1.621 1.621 0 0 0 1.469 1.738h8.18a1.58 1.58 0 0 0 0-3.116zm-36 60.387a3.98 3.98 0 0 0-1.603-1.08l2.822-12.488a4 4 0 0 0-.445-2.893l-10.499-18.04-.051-.087A5.982 5.982 0 0 0 84 82.395a5.982 5.982 0 0 0-8.907 1.35l-.051.087-10.5 18.04a4 4 0 0 0-.444 2.893l2.822 12.488a3.98 3.98 0 0 0-1.603 1.08l-6.315 7.152a4 4 0 0 0 .3 5.601l9.684 8.848a4 4 0 0 0 2.698 1.047q.107 0 .214-.006a4 4 0 0 0 2.785-1.346l6.315-7.152a3.984 3.984 0 0 0 .805-3.839l2.197-2.19 2.197 2.19a3.984 3.984 0 0 0 .805 3.839l6.315 7.152a4 4 0 0 0 2.785 1.346q.107.006.214.006a4 4 0 0 0 2.698-1.047l9.684-8.848a4 4 0 0 0 .3-5.6zm-30.999 18.648L62 128.133l6.316-7.152L78 129.829zM82 99.331a5.983 5.983 0 0 0-8 5.65v6a2 2 0 0 0 4 0v-6a2 2 0 0 1 4 0v17.814l-2.76 2.75-7.997-7.307L68 103.884l10.499-18.04a1.912 1.912 0 0 1 1.635-.863A1.773 1.773 0 0 1 82 86.644zm4 23.464V104.98a2 2 0 0 1 4 0v6a2 2 0 0 0 4 0v-6a5.983 5.983 0 0 0-8-5.65V86.644a1.773 1.773 0 0 1 1.866-1.663 1.912 1.912 0 0 1 1.635.863L100 103.884l-3.243 14.354-7.998 7.306zm10.316 14.186L90 129.829l9.684-8.848 6.316 7.152z"></path>
  <circle cx="2" cy="149.981" r="2" fill="#2d4356"></circle>
  <path fill="#2d4356" d="M11 147.981H8a2 2 0 0 0 0 4h3a2 2 0 0 0 0-4zm149 0h-3a2 2 0 0 0 0 4h3a2 2 0 0 0 0-4z"></path>
  <circle cx="166" cy="149.981" r="2" fill="#2d4356"></circle>
  <path fill="#0bceb2" d="M118.154 155.981h-8.308a2.006 2.006 0 0 0 0 4h8.308a2.006 2.006 0 0 0 0-4zm-60 0h-8.308a2.006 2.006 0 0 0 0 4h8.308a2.006 2.006 0 0 0 0-4zm45.846 0H64a2 2 0 0 0 0 4h15.94v2H72a2 2 0 0 0 0 4h25a2 2 0 0 0 0-4h-8.94v-2H104a2 2 0 0 0 0-4z"></path>
  <path fill="#2d4356" d="M150.721 147.981H137v-78h3a8.009 8.009 0 0 0 8-8v-22a8.009 8.009 0 0 0-8-8h-3v-2a6 6 0 0 0-12 0v2H43v-2a6 6 0 1 0-12 0v2h-3a8.009 8.009 0 0 0-8 8v22a8.009 8.009 0 0 0 8 8h3v78H17.279a2.017 2.017 0 1 0 0 4H150.72a2.017 2.017 0 1 0 0-4ZM129 29.981a2 2 0 0 1 4 0v2h-4Zm-94 0a2 2 0 1 1 4 0v2h-4Zm-7 36a4 4 0 0 1-4-4v-22a4 4 0 0 1 4-4h112a4 4 0 0 1 4 4v22a4 4 0 0 1-4 4Zm97 82H43v-78h82Zm-90 0v-78h4v78Zm94 0v-78h4v78Z"></path>
  <path fill="#2d4356" d="M86.055 26.231a3 3 0 1 0-3-3 3.003 3.003 0 0 0 3 3zm0-4.5a1.5 1.5 0 1 1-1.5 1.5 1.501 1.501 0 0 1 1.5-1.5zm68 26.75a2 2 0 1 0 2 2 2.002 2.002 0 0 0-2-2zm0 3a1 1 0 1 1 1-1 1.001 1.001 0 0 1-1 1zM8 5.481a2 2 0 1 0 2 2 2.002 2.002 0 0 0-2-2zm0 3a1 1 0 1 1 1-1 1.001 1.001 0 0 1-1 1zm149.5 18.75a2 2 0 1 0 2 2 2.002 2.002 0 0 0-2-2zm0 3a1 1 0 1 1 1-1 1.001 1.001 0 0 1-1 1zm-130.195-5a2 2 0 1 0-2 2 2.002 2.002 0 0 0 2-2zm-3 0a1 1 0 1 1 1 1 1.001 1.001 0 0 1-1-1z"></path>
  <path fill="#0bceb2" d="m7.888 42.992 1.487-1.955-.939-.532-.955 2.19H7.45l-.97-2.175-.955.548 1.471 1.909v.031l-2.301-.297v1.063l2.316-.296v.031l-1.486 1.908.891.564 1.018-2.207h.031l.939 2.191.986-.563-1.502-1.878v-.031l2.362.281v-1.063l-2.362.312v-.031zM59 3.749l-.856 1.099.513.325.587-1.271h.017l.541 1.261.568-.324-.865-1.081V3.74l1.36.162v-.613l-1.36.18v-.017l.856-1.127-.541-.306-.549 1.261h-.019l-.558-1.252-.55.315.847 1.1v.018l-1.325-.172v.613L59 3.731v.018zM159.805 6.944V5.901l-2.317.307v-.031l1.458-1.918-.921-.522-.936 2.148h-.031l-.951-2.133-.937.538 1.443 1.872v.031l-2.257-.292v1.043l2.272-.291v.031l-1.458 1.872.875.553.998-2.165h.03l.921 2.149.967-.552-1.473-1.842v-.031l2.317.276zM116.748 5.567l1.258-1.655-.795-.45-.807 1.853h-.027l-.82-1.84-.809.464 1.245 1.615v.026l-1.946-.251v.9l1.959-.252v.027l-1.258 1.615.755.477.861-1.867h.026l.795 1.853.834-.476-1.271-1.589V5.99l1.998.239v-.9l-1.998.264v-.026z"></path>
</svg>
